<?xml version="1.0" encoding="UTF-8" standalone="no"?>
<!-- Created with Inkscape (http://www.inkscape.org/) -->

<svg
   xmlns:dc="http://purl.org/dc/elements/1.1/"
   xmlns:cc="http://creativecommons.org/ns#"
   xmlns:rdf="http://www.w3.org/1999/02/22-rdf-syntax-ns#"
   xmlns:svg="http://www.w3.org/2000/svg"
   xmlns="http://www.w3.org/2000/svg"
   xmlns:sodipodi="http://sodipodi.sourceforge.net/DTD/sodipodi-0.dtd"
   xmlns:inkscape="http://www.inkscape.org/namespaces/inkscape"
   id="svg2"
   version="1.1"
   inkscape:version="0.48.2 r9819"
   width="216"
   height="247"
   sodipodi:docname="spinozarosecaute.png">
  <metadata
     id="metadata8">
    <rdf:RDF>
      <cc:Work
         rdf:about="">
        <dc:format>image/svg+xml</dc:format>
        <dc:type
           rdf:resource="http://purl.org/dc/dcmitype/StillImage" />
        <dc:title></dc:title>
      </cc:Work>
    </rdf:RDF>
  </metadata>
  <defs
     id="defs6" />
  <sodipodi:namedview
     pagecolor="#ffffff"
     bordercolor="#666666"
     borderopacity="1"
     objecttolerance="10"
     gridtolerance="10"
     guidetolerance="10"
     inkscape:pageopacity="0"
     inkscape:pageshadow="2"
     inkscape:window-width="1366"
     inkscape:window-height="706"
     id="namedview4"
     showgrid="false"
     inkscape:zoom="0.95546559"
     inkscape:cx="297.83232"
     inkscape:cy="211.64961"
     inkscape:window-x="-8"
     inkscape:window-y="-8"
     inkscape:window-maximized="1"
     inkscape:current-layer="svg2" />
  <path
     style="fill:#000000"
     d="m 94.13748,224.25688 c -1.275271,-2.38286 0.136996,-4.74927 2.331732,-3.90707 1.019345,0.39116 1.546208,1.48995 1.350925,2.81739 -0.419529,2.85176 -2.422442,3.44442 -3.682657,1.08968 z m 8.46626,0.15288 c -0.33562,-0.87464 -0.35721,-1.99964 -0.048,-2.5 1.40187,-2.26827 5.72488,0.19531 4.7591,2.7121 -0.72396,1.88659 -3.96172,1.74082 -4.71113,-0.2121 z m 8.75901,0.0932 c -0.34557,-0.90055 -0.16636,-2.09931 0.39825,-2.66392 1.6301,-1.6301 4.739,-0.53146 4.739,1.6747 0,2.54367 -4.22832,3.35787 -5.13725,0.98922 z m 9.24099,-1.09316 c -0.80748,-2.10431 0.0916,-3.4098 2.34829,-3.4098 1.91916,0 3.4586,2.52657 2.4922,4.09024 -0.92135,1.49077 -4.18327,1.03221 -4.84049,-0.68048 z M 85.278145,222.87814 C 83.588033,221.18803 84.901957,219 87.606989,219 c 2.46838,0 2.831229,0.69445 1.786022,3.41821 -0.709571,1.84912 -2.522993,2.05181 -4.114866,0.45993 z M 129.36163,222.5 c -0.31659,-0.825 -0.30914,-2.19441 0.0165,-3.04312 0.8335,-2.17207 4.62183,-0.0587 4.62183,2.5783 0,2.36867 -3.76309,2.74577 -4.63837,0.46482 z m 8.05663,-2.59032 c -1.83153,-2.02382 -1.83337,-2.13298 -0.0578,-3.43131 3.21121,-2.34809 7.02794,1.14377 4.53434,4.14838 -1.5374,1.85244 -2.25523,1.73746 -4.47655,-0.71707 z m -61.977567,-0.006 c -0.986993,-1.59699 1.914351,-4.08876 3.881766,-3.3338 2.699947,1.03607 2.115065,4.42976 -0.763442,4.42976 -1.342541,0 -2.745787,-0.49318 -3.118324,-1.09596 z m -7.270733,-4.074 C 68.596404,212.8194 72.5,212.52186 72.5,215.5 c 0,1.33333 -0.77668,2.11001 -2.33004,2.33004 -1.938814,0.27462 -2.274624,-0.0612 -2,-2 z m 77.21858,0.7401 c -0.99567,-2.59467 0.39988,-4.73919 2.85699,-4.39028 1.65273,0.23469 2.25447,0.98741 2.25447,2.82014 0,1.83273 -0.60174,2.58545 -2.25447,2.82014 -1.35228,0.19202 -2.49559,-0.3082 -2.85699,-1.25 z m -48.181281,-2.23851 c -1.811007,-0.89256 -3.714488,-2.41088 -4.229957,-3.37404 -0.515469,-0.96316 -0.85715,-7.23101 -0.759292,-13.92855 l 0.177924,-12.17734 3.552033,0.66333 c 4.434063,0.82806 4.746393,1.14348 3.348584,3.38172 -0.620257,0.99319 -1.429203,5.64526 -1.797659,10.33793 -0.63984,8.14904 -0.566292,8.6047 1.638101,10.14872 2.986417,2.09177 8.239077,2.07295 9.990567,-0.0358 0.93649,-1.12751 1.42226,-4.85986 1.52928,-11.75 0.1378,-8.8719 0.36826,-10.09761 1.8986,-10.09761 1.5403,0 1.7205,1.04106 1.55789,9 -0.10114,4.95 -0.44458,10.4704 -0.76319,12.26755 -1.15287,6.50274 -8.85314,9.15684 -16.142881,5.56408 z M 59.754296,212.75 c -0.802253,-2.18155 0.336253,-3.75 2.722049,-3.75 2.634949,0 3.914238,2.20942 2.24551,3.87814 -1.500683,1.50069 -4.396032,1.426 -4.967559,-0.12814 z M 154.25,213.33772 c -1.78173,-0.71895 -1.54834,-4.28601 0.32754,-5.00585 0.86765,-0.33295 2.29149,0.10859 3.1641,0.9812 1.30773,1.30772 1.36045,1.85899 0.30001,3.13674 -1.34607,1.62191 -1.74252,1.71475 -3.79165,0.88791 z M 83,211.5 c -1.375,-0.78602 -3.2875,-1.44508 -4.25,-1.46456 -2.146418,-0.0435 -2.25574,-1.37082 -0.25,-3.03544 0.94308,-0.78269 1.494227,-2.96301 1.484451,-5.87244 -0.0153,-4.55243 -0.09647,-4.66728 -4.999586,-7.07413 l -4.984036,-2.44657 -3.54801,3.43887 c -2.72898,2.64503 -3.412349,3.97938 -2.960332,5.78036 0.638268,2.54306 0.270905,2.45011 -4.742487,-1.20001 C 55.403396,197.18951 55.248632,196 58.27822,196 c 2.378642,0 4.04216,-1.06446 15.303788,-9.79263 10.417223,-8.07373 10.803873,-7.75969 11.441421,9.29263 0.287885,7.7 0.89853,14.7875 1.356988,15.75 1.000063,2.09956 -0.01379,2.17454 -3.380417,0.25 z m -3,-24 c 0,-3.92618 -0.530534,-4.23484 -3.171259,-1.84501 -2.119655,1.91826 -2.371893,3.95918 -0.578741,4.68273 2.939783,1.18623 3.75,0.57312 3.75,-2.83772 z m 51.62291,22.63545 C 132.23367,207.08164 127.33021,188 125.9347,188 c -0.43576,0 -2.46849,1.58085 -4.51716,3.513 -2.04868,1.93215 -3.98246,3.25541 -4.29729,2.94058 -1.08325,-1.08325 3.38217,-7.93036 5.37975,-8.24912 1.1,-0.17553 4.38568,-1.25501 7.30151,-2.39885 4.27047,-1.67525 5.77768,-1.86274 7.75,-0.9641 3.6614,1.66825 2.95721,3.15849 -1.49249,3.15849 -4.39194,0 -5.57519,1.04245 -4.21035,3.70932 0.50403,0.98488 1.92843,4.49068 3.16534,7.79068 3.0181,8.05217 4.6521,10.5 7.00904,10.5 3.66008,0 2.01647,1.6223 -3.36094,3.31738 -7.24273,2.28307 -7.7163,2.20355 -7.0392,-1.18193 z m -78.517718,-1.5087 C 51.558777,206.76343 52.773142,204 55.138374,204 c 2.426363,0 3.474865,2.55617 1.851057,4.51273 -1.532364,1.84639 -2.424758,1.87259 -3.884239,0.11402 z M 161.25,207.33772 c -1.73654,-0.70071 -1.56638,-3.27908 0.26273,-3.98098 1.97421,-0.75757 4.52259,1.38765 3.82084,3.21637 -0.55466,1.44542 -1.81261,1.68096 -4.08357,0.76461 z M 46.666667,203.33333 c -1.122422,-1.12242 -0.740989,-4.14001 0.583333,-4.61487 0.6875,-0.24651 2.074834,-0.0232 3.082964,0.49625 1.743201,0.89821 1.747854,1.03851 0.09501,2.86487 -1.850115,2.04436 -2.690561,2.3245 -3.76131,1.25375 z m 105.769453,-2.13207 c 0.76533,-2.41135 -5.11091,-13.03073 -10.13022,-18.30705 l -3.43016,-3.60579 5.81213,-5.62405 c 3.19667,-3.09324 6.32478,-5.63313 6.95135,-5.64422 0.62656,-0.0111 2.20156,0.87071 3.5,1.95953 2.01478,1.68955 2.14094,2.12698 0.86078,2.98469 -0.825,0.55275 -2.44276,1.0119 -3.59501,1.02032 -1.15226,0.008 -2.91116,0.91714 -3.90867,2.01937 -1.49857,1.65591 -1.61608,2.43767 -0.67642,4.5 0.62547,1.37277 1.75213,2.49594 2.50367,2.49594 1.55221,0 4.07009,-2.64746 4.99305,-5.25 0.92785,-2.61636 3.03547,-2.11684 4.98365,1.18117 1.71625,2.90537 0.92175,4.94211 -1.3743,3.52308 -1.1876,-0.73398 -5.93896,3.26596 -5.90373,4.97006 0.0122,0.59163 0.84777,2.14932 1.85676,3.46153 l 1.83453,2.38583 3.05961,-2.26207 c 1.68279,-1.24414 3.27345,-3.07977 3.5348,-4.07918 0.35192,-1.34574 1.21668,-1.71997 3.33362,-1.44266 1.57214,0.20594 3.19594,0.40545 3.60844,0.44334 2.17121,0.19946 -0.20297,3.28572 -7.36112,9.5689 -8.49083,7.45297 -11.53586,9.11382 -10.45276,5.70126 z m 13.92663,-0.69834 c -0.34557,-0.90055 -0.16636,-2.09931 0.39825,-2.66392 1.6301,-1.6301 4.739,-0.53146 4.739,1.6747 0,2.54367 -4.22832,3.35787 -5.13725,0.98922 z M 40.25,197.33772 C 39.5625,197.06031 39,195.97083 39,194.91667 39,193.53255 39.703353,193 41.531385,193 c 2.879256,0 4.471472,2.75138 2.364332,4.08561 -1.534334,0.97154 -1.814736,0.99093 -3.645717,0.25211 z M 173.2,195.8 c -2.73617,-2.73617 -0.18128,-6.13098 3.55,-4.71706 2.59086,0.98178 3.02187,4.40689 0.66821,5.31007 -2.23266,0.85675 -2.85609,0.76911 -4.21821,-0.59301 z M 34.010569,189.51273 C 32.375783,187.54294 33.441174,185 35.901228,185 c 2.427029,0 3.909073,3.87187 1.955784,5.10953 -1.883883,1.19368 -2.430917,1.10881 -3.846443,-0.5968 z m 11.445996,-2.85616 C 42.348902,183.5489 42,182.64249 42,177.67673 c 0,-4.54331 0.479634,-6.09329 2.703309,-8.73598 C 47.781423,165.28262 52.512932,163 57.017541,163 60.260462,163 66,165.47428 66,166.87228 c 0,0.4515 1.513195,2.379 3.362655,4.28333 l 3.362654,3.46242 -2.314689,2.69098 c -2.984067,3.46919 -4.170006,3.41166 -3.643342,-0.17673 0.522326,-3.55884 -2.064227,-8.77437 -4.778782,-9.63593 -3.378922,-1.07243 -7.432179,0.39231 -11.192444,4.04464 -4.135533,4.01684 -5.182568,7.81089 -3.20885,11.62764 1.792381,3.46608 2.890951,4.10196 7.304862,4.22819 5.322684,0.15222 4.387415,2.05333 -1.185499,2.40975 -4.324698,0.27658 -5.131442,-0.0315 -8.25,-3.15 z m 133.210105,1.67676 C 178.3,187.96667 178,186.81178 178,185.76691 c 0,-2.93924 5.39185,-2.02841 5.81955,0.98309 0.25532,1.79774 -0.16344,2.25 -2.08333,2.25 -1.32159,0 -2.70289,-0.3 -3.06955,-0.66667 z M 29.081988,182.1532 c -1.839295,-3.43676 2.456064,-5.61967 5.00782,-2.54499 1.134013,1.3664 1.048506,1.81748 -0.568684,3 -2.508093,1.83396 -3.25509,1.7574 -4.439136,-0.45501 z m 154.491422,-0.72265 c -1.18468,-1.18468 -1.31615,-2.04273 -0.53624,-3.5 1.30338,-2.43539 2.20189,-2.42886 4.42912,0.0322 3.30043,3.64694 -0.40919,6.95149 -3.89288,3.4678 z M 118.5,180.22555 c -1.1,-0.17579 -3.35,-2.43595 -5,-5.02258 -2.20152,-3.45123 -4.46387,-5.42687 -8.5,-7.42276 -9.043311,-4.47199 -10.689768,-7.00883 -4.25,-6.54835 2.0625,0.14748 3.93899,-0.18186 4.16999,-0.73186 0.4003,-0.95313 -10.411057,-9.09367 -16.871348,-12.70349 C 84.908338,146.0418 83.982739,144 86.327592,144 c 0.730175,0 4.096234,1.125 7.480129,2.5 6.782569,2.756 7.192279,2.85361 7.192279,1.71345 0,-1.61154 -9.801424,-8.02755 -15.780318,-10.32979 -3.404681,-1.31101 -6.196934,-2.76156 -6.205006,-3.22343 -0.0081,-0.46187 3.810324,-0.52115 8.485324,-0.13172 5.274065,0.43933 8.5,0.34245 8.5,-0.25525 0,-2.94168 -9.733676,-7.26193 -16.408931,-7.28303 -8.18733,-0.0259 -19.603256,-9.31944 -21.760202,-17.71472 -2.331181,-9.07344 -2.345837,-8.64977 0.272953,-7.8905 1.317899,0.38211 5.32118,1.17104 8.89618,1.75319 8.173335,1.33093 10.90045,3.01011 20.050036,12.34551 4.051678,4.13396 7.610425,7.50834 7.908326,7.49862 0.297901,-0.01 1.638998,-2.37221 2.980215,-5.25 1.341218,-2.87778 3.478713,-6.62481 4.750003,-8.32672 1.27128,-1.70192 2.31142,-3.36062 2.31142,-3.68602 0,-0.32539 -1.81423,-1.61128 -4.03163,-2.85752 C 96.622425,100.41951 95.952279,98.940062 96.048179,92 c 0.0342,-2.475 -0.07515,-6.019037 -0.242999,-7.875639 -0.366422,-4.053041 2.893437,-7.056144 8.27661,-7.624719 1.88001,-0.19857 5.03175,-0.664099 7.00386,-1.03451 4.00016,-0.751331 10.07057,1.765361 13.15456,5.45366 0.95712,1.144664 2.43784,2.081208 3.2905,2.081208 0.85265,0 2.88205,0.984626 4.50978,2.188058 C 134.244,86.817184 135,88.190946 135,90.565935 c 0,1.754399 0.69484,4.852805 1.54409,6.885345 3.4847,8.34005 -2.05918,11.55437 -20.53502,11.90611 l -7.49092,0.14261 -1.79711,3.81406 c -2.9947,6.35575 -3.78589,12.75386 -2.28209,18.4545 2.37489,9.00281 3.3087,9.2691 6.9483,1.98144 3.31245,-6.63261 6.59119,-10.19347 14.12542,-15.34085 3.29303,-2.24979 8.13951,-5.60919 10.76994,-7.46533 4.05854,-2.86386 5.64821,-3.38002 10.5,-3.40931 6.05326,-0.0365 17.23455,3.16493 17.19235,4.92258 -0.0387,1.61025 -6.03735,8.93771 -10.34699,12.63896 -4.18148,3.59119 -8.87279,4.63979 -21.62797,4.83431 -3.575,0.0545 -7.625,0.66125 -9,1.34829 -3.82711,1.91229 -6.14066,7.34162 -5.42081,12.72135 1.06557,7.96353 1.51668,10.4292 1.9957,10.90823 0.25795,0.25794 2.49615,-0.51589 4.9738,-1.71962 C 129.7542,150.65958 135,150.27502 135,152.42245 c 0,0.78234 -1.54006,1.93071 -3.42235,2.55192 -2.59218,0.8555 -4.04761,2.32528 -6,6.05915 -3.23486,6.18656 -3.2543,9.93433 -0.0777,14.96648 1.375,2.17814 2.5,4.21243 2.5,4.52064 0,0.53796 -5.32164,0.37266 -9.5,-0.29509 z m 2.97205,-5.47555 c -0.37777,-1.7875 -1.9847,-4.45864 -3.57095,-5.93587 -2.23027,-2.07697 -2.70631,-3.16647 -2.09987,-4.80584 0.43133,-1.16599 0.28173,-6.69767 -0.33244,-12.29263 -1.24165,-11.31111 -0.65248,-16.75022 2.14982,-19.84672 3.54442,-3.91654 7.0279,-4.97649 15.67551,-4.76975 4.51323,0.1079 10.1025,-0.38675 12.42059,-1.09922 4.45539,-1.36937 11.22898,-6.35136 10.14369,-7.46069 -0.35289,-0.3607 -4.51539,0.65484 -9.25,2.25675 -9.09049,3.07569 -10.91336,2.79163 -5.1084,-0.79603 2.9,-1.7923 4.62594,-4 3.12712,-4 -0.38687,0 -7.7882,3.1114 -13.27825,5.58197 -4.04587,1.82067 -4.42728,1.78594 -3.6156,-0.32926 0.62656,-1.63279 0.47706,-1.62795 -2.28139,0.0739 -4.86177,2.99952 -11.43324,10.90398 -12.57047,15.12032 -0.7462,2.76659 -0.75299,6.04617 -0.0227,10.96641 0.9217,6.21003 0.85407,8.80073 -0.19588,7.50332 -0.18546,-0.22917 -1.77669,-3.34167 -3.53607,-6.91667 -1.75939,-3.575 -4.17322,-8.3 -5.36408,-10.5 -1.61507,-2.98368 -2.22682,-6.03264 -2.40771,-12 -0.13338,-4.4 -0.29951,-8.225 -0.36919,-8.5 -0.0697,-0.275 -0.76505,1.2413 -1.545267,3.36956 -0.78022,2.12826 -1.149729,4.94076 -0.82113,6.25 0.893948,3.56177 -0.591278,2.91562 -6.024651,-2.62103 -5.058797,-5.15496 -7.44342,-6.45287 -5.629896,-3.06427 1.706435,3.1885 1.241695,3.17009 -3.449663,-0.13669 -4.720134,-3.32706 -7.103969,-3.21067 -4.020701,0.1963 2.387018,2.63763 1.708728,2.5346 -4.491522,-0.6822 -2.849903,-1.47858 -7.03082,-4.62858 -9.290925,-7 C 63.451899,110.94025 61.242109,109 60.801361,109 c -3.424119,0 4.838672,10.72825 10.529229,13.67095 2.4203,1.25159 9.127791,2.66906 17.669912,3.73413 3.169551,0.39519 7.900623,4.07426 9.966861,7.75064 2.731587,4.8602 1.995077,6.14436 -2.457085,4.28413 C 92.487269,136.75893 92,136.6983 92,137.87868 c 0,0.48327 1.349143,1.43751 2.998095,2.12053 C 98.476447,141.43999 110,153.37486 110,155.53659 c 0,1.94663 -0.29826,1.87935 -4.59514,-1.03659 -2.02617,-1.375 -4.07116,-2.5 -4.54441,-2.5 -1.772029,0 -0.74068,1.57223 2.46126,3.75205 7.2482,4.93444 11.54792,11.65687 5.32602,8.32702 -1.29208,-0.69151 -3.42891,-1.07252 -4.74849,-0.8467 -2.37552,0.40652 -2.37076,0.42248 0.48137,1.61401 4.78068,1.99722 8.59512,5.15492 11.18723,9.26109 1.56259,2.4753 3.20979,3.89253 4.52416,3.89253 1.80613,0 1.98025,-0.41006 1.38005,-3.25 z m -1.07836,-10.33356 c 0.37373,-0.97391 0.15024,-1.43108 -0.58051,-1.1875 -1.49484,0.49828 -2.31789,2.77106 -1.0035,2.77106 0.53699,0 1.24979,-0.7126 1.58401,-1.58356 z m 17.13336,-50.4602 c 0.32314,-0.52286 2.47425,-1.83547 4.78024,-2.91693 2.46151,-1.15439 3.41563,-1.98136 2.31074,-2.00279 C 141.41445,108.97436 131,116.0146 131,118.24241 c 0,0.95163 5.53716,-2.68451 6.52705,-4.28617 z m -17.09708,-7.84293 c 0.30141,-0.48768 -0.12204,-1.44278 -0.94098,-2.12245 C 117.89052,102.66425 117.45692,100 118.83948,100 c 0.46172,0 1.35207,1.125 1.97857,2.5 1.29151,2.83457 2.69175,3.21982 3.55227,0.97735 0.46927,-1.2229 0.95276,-1.29253 2.45606,-0.35371 2.89332,1.80691 7.17362,0.32454 7.17362,-2.4844 0,-1.829954 -0.82011,-2.568375 -3.86602,-3.480952 C 128.00767,96.521229 125.46293,96 124.47899,96 c -1.71162,0 -1.71071,0.08647 0.021,2 1.57634,1.741836 1.60396,2 0.214,2 -0.87778,0 -1.85282,-0.415593 -2.16675,-0.92354 -0.31392,-0.507947 -2.78089,-1.657624 -5.48215,-2.554837 -3.27898,-1.089103 -5.78476,-2.776367 -7.53913,-5.07646 C 108.08071,89.550323 106.24612,88 105.44911,88 104.6521,88 104,87.55 104,87 c 0,-0.55 0.43588,-1 0.96862,-1 0.53273,0 0.67961,-0.753124 0.32639,-1.673609 -0.5036,-1.312341 -0.24425,-1.520891 1.20143,-0.96613 1.08428,0.416078 2.15411,0.205156 2.59739,-0.512089 0.59241,-0.958528 1.0703,-0.956844 2.23271,0.0079 1.17374,0.974116 1.58926,0.960845 2.01339,-0.0643 0.39894,-0.964253 0.9063,-0.832902 2.00125,0.518103 1.0771,1.328983 1.66573,1.488001 2.21546,0.598509 0.5468,-0.884741 1.10913,-0.718347 2.08567,0.617159 1.50654,2.06031 2.91771,1.37626 2.01481,-0.976657 C 120.21812,79.798882 110.15624,76.320155 108.5,79 c -0.33992,0.55 -2.13433,1 -3.98759,1 C 101.39264,80 98,82.05722 98,83.948984 c 0,0.44337 0.675,1.366327 1.5,2.051016 1.82727,1.516497 1.90506,3.378539 0.251741,6.025918 -2.872165,4.599067 3.906449,9.832932 9.120789,7.0423 1.7177,-0.919286 2.05574,-0.671281 2.62639,1.926882 0.84463,3.84554 2.50108,4.88132 2.50108,1.56392 0,-1.40746 0.45,-2.55902 1,-2.55902 0.55,0 1,1.275 1,2.83333 0,1.55834 0.3,3.13334 0.66667,3.5 0.95075,0.95076 3.11803,0.82404 3.7633,-0.22002 z M 103.55375,95.4624 c -1.53476,-1.159116 -1.68752,-1.728634 -0.72248,-2.69367 1.4405,-1.440497 4.66873,0.120072 4.66873,2.256923 0,1.921012 -1.72778,2.112232 -3.94625,0.436747 z m 27.73379,-3.998364 c -0.31336,-4.15544 -2.46841,-5.903744 -5.87683,-4.767607 -3.55052,1.183508 -4.34332,3.298544 -1.24404,3.318884 2.70461,0.01775 5.01466,1.266035 4.7677,2.576328 -0.34728,1.842517 0.0976,2.563691 1.31563,2.132478 0.6875,-0.243401 1.15439,-1.710438 1.03754,-3.260083 z M 116.58179,91 c 2.01276,0 1.76211,-1.677544 -0.33179,-2.220612 -2.49615,-0.647396 -4.25,0.14119 -4.25,1.910934 0,0.978532 0.56592,1.306491 1.58179,0.916667 C 114.45177,91.273145 115.80177,91 116.58179,91 z M 25.036355,174.5438 C 23.44197,172.62269 24.548093,171 27.452028,171 c 3.018976,0 4.067927,2.65136 1.576475,3.98475 -2.436993,1.30423 -2.554554,1.29125 -3.992148,-0.44095 z m 163.404775,-0.97648 c -1.46618,-1.08213 -1.65991,-1.71813 -0.79179,-2.59934 1.64177,-1.66651 5.35066,-0.21128 5.35066,2.09941 0,2.28782 -1.86009,2.4918 -4.55887,0.49993 z M 21.666667,167.33333 C 21.3,166.96667 21,165.88981 21,164.94032 c 0,-2.45544 3.043828,-3.33009 4.927541,-1.41595 1.431109,1.45423 1.397969,1.72721 -0.368671,3.03675 -2.161719,1.60239 -2.912973,1.75144 -3.892203,0.77221 z m 169.437613,-1.24772 c -2.35553,-1.49151 -0.48158,-4.26164 2.64003,-3.90258 1.97472,0.22714 2.84625,0.95462 3.07524,2.56697 0.25305,1.78176 -0.16316,2.24681 -2,2.23469 -1.27575,-0.008 -2.94762,-0.41301 -3.71527,-0.89908 z M 19.25,159.28154 c -0.6875,-0.24651 -1.25,-1.3406 -1.25,-2.4313 0,-1.56175 0.567891,-1.91586 2.672881,-1.66666 1.470085,0.17403 2.847429,0.84845 3.060765,1.49872 0.460935,1.40496 -2.701481,3.23826 -4.483646,2.59924 z m 174.22611,-1.32019 c -0.39202,-0.6343 -0.0347,-1.83134 0.79406,-2.66009 1.93243,-1.93243 5.97258,-0.8112 5.52815,1.53418 -0.37033,1.9543 -5.27086,2.82703 -6.32221,1.12591 z M 16,149.62244 c 0,-0.75765 0.59942,-1.87503 1.332045,-2.48305 1.664138,-1.38111 5.343903,0.95789 4.261713,2.70891 C 20.582854,151.48397 16,151.29894 16,149.62244 z m 180.38,-0.0746 c -1.35638,-3.53468 3.74801,-5.04573 5.5665,-1.64785 0.77904,1.45564 0.6512,2.04036 -0.5466,2.5 -2.59181,0.99457 -4.43105,0.68235 -5.0199,-0.85215 z m -25.89287,-2.66258 c -3.36897,-1.6391 -6.48748,-7.1452 -6.48339,-11.44719 0.004,-4.36529 1.60372,-7.30308 8.40197,-15.43103 6.56658,-7.85096 6.09378,-10.32478 -2.00237,-10.47695 -2.28454,-0.0429 -4.88487,-0.68489 -5.77852,-1.42655 -2.31104,-1.91799 -2.00989,-5.72047 0.59769,-7.54689 2.9809,-2.087905 4.43866,-1.960376 5.06724,0.4433 0.44529,1.70279 1.36401,2 6.18237,2 6.17281,0 9.09862,1.08689 11.75564,4.36704 3.52847,4.35596 2.14888,7.58112 -7.50742,17.55064 -7.01679,7.2444 -8.24061,10.41919 -5.19172,13.46808 2.57083,2.57083 5.97138,0.57194 5.97138,-3.51005 0,-2.78138 0.41336,-3.43423 2.34786,-3.70809 3.27321,-0.46337 7.15214,3.40823 7.15214,7.13862 0,2.09594 -1.04043,3.93886 -3.5712,6.32568 -3.21888,3.0358 -4.13146,3.3614 -9.25,3.3004 -3.12334,-0.0372 -6.58459,-0.50838 -7.69167,-1.04701 z m 14.42093,-4.28745 c 1.46707,-1.56162 2.09734,-3.22365 1.80126,-4.75 L 186.2539,135.5 l -0.72609,2.1831 c -0.39935,1.20071 -2.2681,2.91484 -4.1528,3.80919 C 175.71744,144.17698 171,141.38996 171,135.36283 c 0,-4.75188 1.31556,-7.0132 7.48318,-12.86283 2.89949,-2.75 5.80689,-6.03889 6.46089,-7.30865 1.59993,-3.10634 0.46285,-7.65964 -2.24205,-8.97801 -3.10091,-1.51138 -16.88282,-2.25573 -16.42664,-0.88719 0.49152,1.47454 5.74831,2.81288 8.49514,2.1628 1.24879,-0.29555 3.16129,-0.0606 4.25,0.52203 3.37229,1.8048 2.37655,5.49121 -3.30223,12.22556 -8.97063,10.63806 -10.00125,12.44161 -9.28657,16.25119 0.95435,5.0871 5.56993,8.51227 11.47069,8.51227 3.721,0 5.23745,-0.51997 7.00565,-2.40214 z M 14.322898,141.39908 c -0.60936,-1.58797 1.123788,-3.35434 3.320113,-3.38377 1.361232,-0.0182 2.59954,2.78322 1.801216,4.07493 -0.928727,1.50271 -4.462466,1.02581 -5.121329,-0.69116 z M 198.36163,141.5 c -0.67029,-1.74673 0.19599,-4.5 1.41586,-4.5 1.99637,0 4.51351,2.79929 3.91637,4.35539 -0.78944,2.05726 -4.55905,2.15949 -5.33223,0.14461 z M 29.25,135.26276 c -5.149054,-0.36022 -6.518027,-1.59473 -4.26587,-3.84689 1.564348,-1.56435 3.495385,-31.06803 2.217055,-33.873661 -0.587065,-1.288468 -0.797495,-2.612566 -0.467621,-2.942439 0.786808,-0.786808 12.713723,-0.751712 17.575846,0.05172 2.889765,0.477513 4.398602,1.496553 6.25,4.221129 2.500013,3.679101 3.225056,8.524521 1.44059,9.627381 -1.589452,0.98234 -1.16635,4.49477 0.954869,7.92698 3.868846,6.25992 2.343621,15.33306 -3.046063,18.12018 -2.717379,1.40521 -8.124128,1.59249 -20.658806,0.7156 z m 18.79279,-3.5065 c 3.087108,-2.07494 3.489104,-2.86875 3.75514,-7.41513 0.267329,-4.56849 -0.02492,-5.41427 -2.845374,-8.23473 l -3.143304,-3.1433 2.043814,-4.13092 c 1.854187,-3.74764 1.908466,-4.39265 0.585024,-6.9519 C 46.432904,98.002678 44.118671,97 37.174149,97 c -5.349978,0 -6.012844,0.229389 -6.501823,2.25 -0.412625,1.70509 -1.987284,25.3366 -2.148943,32.25 -0.02496,1.06754 4.141089,1.90799 11.519407,2.32389 3.392154,0.19121 5.418462,-0.3325 8,-2.06763 z m -12.530579,-0.63529 c -3.557904,-0.75781 -3.954614,-2.16554 -3.033686,-10.76504 0.648239,-6.05316 0.807872,-6.35566 3.351069,-6.35035 4.634511,0.01 10.054792,1.99127 11.640923,4.25579 C 50.728222,122.9124 47.917138,131 43.042832,131 c -1.033591,0 -2.478561,0.1704 -3.211045,0.37867 -0.732483,0.20827 -2.676292,0.0923 -4.319576,-0.2577 z M 44,127 c 1.1,-1.1 2,-2.9 2,-4 0,-4.64712 -8.859851,-8.41356 -10.393011,-4.41821 -0.815271,2.12456 -0.773696,8.91817 0.05968,9.75154 C 37.056678,129.72334 42.080461,128.91954 44,127 z M 33.401981,109.60516 c -0.294388,-0.76716 -0.392765,-3.12966 -0.218616,-5.25 0.314265,-3.8263 0.350114,-3.85626 4.789032,-4.00174 3.384584,-0.11093 4.904761,0.35193 6.25,1.90301 2.395471,2.762 2.237874,5.30778 -0.444903,7.18687 -2.802517,1.96296 -9.643415,2.06968 -10.375513,0.16186 z m 8.493736,-2.51955 C 43.980895,105.76529 42.420577,103 39.590402,103 c -2.783806,0 -4.039389,1.38757 -3.2104,3.54789 0.621383,1.61929 3.382486,1.88847 5.515715,0.53772 z m -27.791434,26.01406 c -2.126948,-1.3682 -0.526187,-4.29858 2.141246,-3.91981 1.475175,0.20948 2.254471,1.00674 2.254471,2.30644 0,2.19207 -2.225999,3.00908 -4.395717,1.61337 z M 199,131.43358 c 0,-2.20978 0.38216,-2.52245 2.75,-2.25 1.96901,0.22656 2.84075,0.95541 3.06955,2.56642 0.27184,1.91406 -0.13875,2.25 -2.75,2.25 C 199.44084,134 199,133.63141 199,131.43358 z M 13.010569,124.51273 C 11.247843,122.38878 12.513319,120 15.401228,120 c 2.511084,0 4.355856,2.966 3.104303,4.99105 -0.92518,1.49697 -4.083804,1.22203 -5.494962,-0.47832 z m 186.350961,-0.013 c -0.84694,-2.20709 0.89026,-3.7423 3.77313,-3.33441 1.58712,0.22455 2.36534,0.99268 2.36534,2.33466 0,2.61286 -5.1948,3.45892 -6.13847,0.99975 z M 200.25,117.3562 c -3.33667,-1.39576 0.8169,-6.03525 4.23043,-4.72536 2.29339,0.88006 1.52963,4.8208 -0.98043,5.05869 -1.1,0.10426 -2.5625,-0.0457 -3.25,-0.33333 z M 13,114.08333 c 0,-1.05416 0.5625,-2.10592 1.25,-2.33724 2.28446,-0.76863 4.75,0.46182 4.75,2.37054 C 19,115.5426 18.271406,116 16,116 c -2.289855,0 -3,-0.4537 -3,-1.91667 z m 186.36275,-6.58041 c -0.92287,-2.40495 1.2533,-4.23488 3.41477,-2.87146 2.42883,1.53207 2.13961,3.80931 -0.53199,4.18868 -1.38425,0.19656 -2.497,-0.31188 -2.88278,-1.31722 z M 16.75,107.24792 c -2.150957,-0.48497 -2.365832,-4.79763 -0.278939,-5.59844 C 17.909319,101.09757 21,103.34925 21,104.94898 c 0,1.3962 -2.428237,2.70969 -4.25,2.29894 z m 180.91667,-6.91459 C 197.3,99.966667 197,98.841667 197,97.833333 197,96.471138 197.75579,96 199.94098,96 c 3.45137,0 4.72475,1.49292 3.02267,3.543805 -1.257,1.514595 -4.14192,1.944595 -5.29698,0.789525 z M 18.728644,98.868017 C 16.896469,97.842681 16.38126,94.500436 17.909758,93.555773 19.634808,92.489633 22,94.21988 22,96.547972 c 0,2.871941 -1.007896,3.586738 -3.271356,2.320045 z M 195.36163,91.5 c -0.97137,-2.531328 0.45317,-4.665303 2.8839,-4.320137 1.61572,0.229434 2.34412,1.09928 2.57089,3.070137 0.27333,2.375479 -0.0374,2.75 -2.28138,2.75 -1.4288,0 -2.85683,-0.675 -3.17341,-1.5 z M 20.575752,89.679049 C 18.48039,88.146883 18.998533,85 21.34617,85 c 2.452208,0 3.781291,2.443428 2.375116,4.366487 -1.081856,1.479525 -1.493657,1.520445 -3.145534,0.312562 z M 191.93675,82.423785 c -1.08413,-1.306295 -1.06229,-1.731788 0.12755,-2.484688 3.3014,-2.089036 7.96497,0.115782 5.78946,2.737109 -1.48611,1.790651 -4.32181,1.669678 -5.91701,-0.252421 z M 23.835144,82.26432 c -2.383893,-0.541504 -3.006362,-2.950245 -1.223208,-4.733399 1.147144,-1.147144 2.007158,-1.26996 3.45751,-0.493755 3.391508,1.81508 1.564232,6.089995 -2.234302,5.227154 z M 188.68719,74.627208 c -0.31257,-0.81454 0.0584,-2.001061 0.82426,-2.636713 1.89951,-1.576452 5.68488,-0.255481 5.28687,1.844943 -0.40962,2.161688 -5.3403,2.800517 -6.11113,0.79177 z M 26.557026,73.063013 C 24.579332,70.877685 25.216876,69 27.936572,69 30.746448,69 32.543661,71.640003 31,73.5 29.371104,75.462699 28.665946,75.393344 26.557026,73.063013 z M 184.2468,67.846804 C 182.68199,66.281992 184.48722,63 186.91274,63 c 1.0133,0 2.40257,0.675 3.08726,1.5 2.48907,2.999143 -2.94165,6.158351 -5.7532,3.346804 z M 31.2,66.8 C 29.935956,65.535956 29.595335,62.737999 30.585012,61.748321 31.36559,60.967743 37,62.968621 37,64.026397 37,65.050335 34.126181,68 33.128571,68 32.727857,68 31.86,67.46 31.2,66.8 z m 72.9622,-2.542676 c -5.526342,-0.311568 -6.241443,-0.574978 -5.585179,-2.05732 0.951655,-2.149558 2.239339,-15.601581 2.343459,-24.481389 0.0605,-5.158222 -0.27951,-6.919159 -1.42048,-7.356989 -3.768274,-1.446022 -0.761699,-2.167711 7.25,-1.740268 9.92437,0.529488 16.01633,2.407097 18.34551,5.654285 6.45896,9.004656 5.31628,22.257534 -2.42839,28.164685 -3.50854,2.676094 -3.42041,2.667441 -18.50492,1.816996 z m 15.81627,-3.540865 c 2.89372,-1.464166 5.88706,-8.456835 5.96715,-13.939708 0.0705,-4.824741 -3.57966,-12.288977 -6.70611,-13.713484 -3.97912,-1.813008 -13.83448,-2.52764 -14.73624,-1.068554 -0.42516,0.687912 -1.20617,7.329361 -1.73559,14.758776 -0.78597,11.029777 -0.71536,13.664693 0.38487,14.361956 2.05482,1.302218 14.02469,1.018382 16.82592,-0.398986 z m -11.85623,-2.794881 c -2.35705,-0.943363 -2.37144,-1.04076 -1.65313,-11.186614 0.39854,-5.62923 0.93259,-10.572464 1.18677,-10.984964 0.25419,-0.4125 2.61585,-0.75 5.24815,-0.75 5.7319,0 7.47748,1.586121 8.80425,8 2.29523,11.095646 -4.49948,18.558292 -13.58604,14.921578 z m 7.90825,-2.937895 c 3.0089,-1.610317 4.36886,-7.696756 2.78936,-12.483683 -1.18135,-3.580269 -1.69873,-4.031696 -4.93056,-4.302061 -3.4758,-0.290775 -3.63418,-0.160003 -4.23899,3.5 -0.83026,5.024319 -0.82093,12.798096 0.0164,13.635394 0.98587,0.985875 4.19815,0.809381 6.36382,-0.34965 z m 64.03181,6.054821 c -0.6925,-0.427987 -1.09615,-1.624236 -0.897,-2.658331 0.51765,-2.687911 6.3347,-2.683068 6.3347,0.0053 0,2.123665 -3.51745,3.839833 -5.4377,2.653057 z M 36.708108,59.528514 C 35.009981,58.286813 34.453593,55.87974 35.59977,54.733564 36.692169,53.641165 41,56.28954 41,58.053526 c 0,2.290518 -2.160952,3.033169 -4.291892,1.474988 z m 4.250239,-7.078702 C 39.899178,51.173591 39.945286,50.626143 41.219238,49.352191 43.204219,47.36721 47,49.128924 47,52.035184 c 0,2.437083 -4.128045,2.720383 -6.041653,0.414628 z M 174.18045,51.75 c 0.35121,-2.472941 4.28473,-3.684822 6.0925,-1.877047 C 181.79784,51.397841 179.29789,54 176.308,54 c -1.96575,0 -2.38425,-0.44258 -2.12755,-2.25 z M 47.557026,46.063013 C 45.600746,43.901348 46.210032,42 48.859017,42 c 2.736145,0 4.210456,2.001672 3.058995,4.153196 -1.255123,2.345219 -2.174177,2.326213 -4.360986,-0.09018 z m 120.953454,0.30461 c -1.64303,-1.643033 -1.6374,-1.801646 0.10928,-3.078852 C 171.28473,41.340096 173.5,42.116867 173.5,45 c 0,3.048127 -2.59714,3.760001 -4.98952,1.367623 z M 54.010569,40.512735 C 52.543041,38.744472 53.355302,36 55.34617,36 c 2.001855,0 3.983887,2.697501 3.29709,4.487265 -0.740982,1.93097 -3.040773,1.943614 -4.632691,0.02547 z M 161.35674,40.487265 C 160.61167,38.545645 162.71449,36 165.06343,36 c 2.48268,0 3.24439,1.556307 1.94763,3.979333 -1.26783,2.368956 -4.81781,2.687853 -5.65432,0.507932 z M 61.229187,35.829187 c -1.770357,-1.770357 -1.514258,-3.606254 0.665808,-4.77299 1.397757,-0.748057 2.20661,-0.638696 3.082575,0.416777 2.615594,3.151597 -0.884888,7.219708 -3.748383,4.356213 z m 92.807983,-0.759741 c -1.33088,-2.486757 1.05992,-5.118324 3.96082,-4.35972 2.81052,0.734967 3.28656,1.86177 1.79534,4.249597 -1.60766,2.574274 -4.40871,2.627862 -5.75616,0.110123 z M 69.046163,31.555624 C 68.34771,30.714039 68.03747,29.344739 68.35674,28.512735 c 1.13338,-2.953542 6.087695,-1.059019 5.48017,2.095609 -0.461134,2.394476 -3.148653,2.925882 -4.790747,0.94728 z m 77.134287,-1.795408 c 0.33617,-2.356303 3.38194,-3.597824 4.95855,-2.021214 C 152.70991,29.309911 150.93238,32 148.32346,32 c -1.97889,0 -2.3998,-0.439919 -2.14301,-2.239784 z M 76.468051,26.899337 c -0.366699,-1.155365 -0.159638,-2.60775 0.460136,-3.227524 1.542646,-1.542646 4.472073,0.362037 4.891364,3.180315 0.450328,3.026897 -4.392225,3.069617 -5.3515,0.04721 z m 61.655469,0.749498 c -0.93811,-1.130351 -0.85897,-1.770529 0.3709,-3.000399 2.04608,-2.046074 4.69662,-0.988782 4.30845,1.718626 -0.36473,2.543994 -3.02665,3.27315 -4.67935,1.281773 z M 85.2,25.8 c -1.581457,-1.581457 -1.514605,-2.342538 0.371429,-4.228571 2.115537,-2.115538 3.139692,-1.979722 4.519999,0.599406 0.962764,1.798941 0.850392,2.398539 -0.655946,3.5 C 87.201969,27.30402 86.718756,27.318756 85.2,25.8 z m 45.05,0.533333 c -1.9032,-0.76128 -1.49097,-4.134001 0.64499,-5.277136 2.51802,-1.3476 4.99767,1.305087 3.47558,3.718106 -1.15699,1.834205 -2.32645,2.276676 -4.12057,1.55903 z M 94.003686,24.002278 c -0.740163,-0.457446 -0.945976,-1.608745 -0.524808,-2.935728 0.910499,-2.868729 4.894367,-2.454823 5.323591,0.553098 0.326523,2.288213 -2.600269,3.741386 -4.798783,2.38263 z m 8.172794,-2.678762 C 102.4353,19.064703 103,18.5 105,18.5 c 2,0 2.5,0.5 2.5,2.5 0,2 -0.5647,2.564703 -2.82352,2.823516 -2.56842,0.294288 -2.79428,0.06842 -2.5,-2.5 z m 9.21206,1.246621 c -0.99567,-2.594671 0.39988,-4.739185 2.85699,-4.390274 C 115.89826,18.414553 116.5,19.167272 116.5,21 c 0,1.832728 -0.60174,2.585447 -2.25447,2.820137 -1.35228,0.192025 -2.49559,-0.308199 -2.85699,-1.25 z m 8.79191,-0.809921 c 0.35663,-2.499688 3.65036,-3.652001 4.8572,-1.699293 C 126.29261,22.091481 124.97755,24 122.32346,24 c -1.97889,0 -2.3998,-0.439919 -2.14301,-2.239784 z"
     id="path2991"
     inkscape:connector-curvature="0" />
</svg>
